<svg id="markdown-mermaid-dzxil4-114" width="100%" xmlns="http://www.w3.org/2000/svg" style="max-width: 3384px;" viewBox="-50 -10 3384 1731" role="graphics-document document" aria-roledescription="sequence"><g><rect x="3108" y="1645" fill="#eaeaea" stroke="#666" width="176" height="65" name="Reply" rx="3" ry="3" class="actor actor-bottom"/><text x="3196" y="1677.5" dominant-baseline="central" alignment-baseline="central" class="actor actor-box" style="text-anchor: middle; font-size: 16px; font-weight: 400;"><tspan x="3196" dy="0">conversation.sendText</tspan></text></g><g><rect x="2854" y="1645" fill="#eaeaea" stroke="#666" width="150" height="65" name="Wallet" rx="3" ry="3" class="actor actor-bottom"/><text x="2929" y="1677.5" dominant-baseline="central" alignment-baseline="central" class="actor actor-box" style="text-anchor: middle; font-size: 16px; font-weight: 400;"><tspan x="2929" dy="0">ctx.wallet (OWS)</tspan></text></g><g><rect x="2604" y="1645" fill="#eaeaea" stroke="#666" width="150" height="65" name="Tools" rx="3" ry="3" class="actor actor-bottom"/><text x="2679" y="1677.5" dominant-baseline="central" alignment-baseline="central" class="actor actor-box" style="text-anchor: middle; font-size: 16px; font-weight: 400;"><tspan x="2679" dy="0">ctx.tools executor</tspan></text></g><g><rect x="2318" y="1645" fill="#eaeaea" stroke="#666" width="150" height="65" name="LLM" rx="3" ry="3" class="actor actor-bottom"/><text x="2393" y="1677.5" dominant-baseline="central" alignment-baseline="central" class="actor actor-box" style="text-anchor: middle; font-size: 16px; font-weight: 400;"><tspan x="2393" dy="0">DeepSeek LLM</tspan></text></g><g><rect x="2002" y="1645" fill="#eaeaea" stroke="#666" width="229" height="65" name="Policy" rx="3" ry="3" class="actor actor-bottom"/><text x="2116.5" y="1677.5" dominant-baseline="central" alignment-baseline="central" class="actor actor-box" style="text-anchor: middle; font-size: 16px; font-weight: 400;"><tspan x="2116.5" dy="0">treasury-policy agent/request</tspan></text></g><g><rect x="1625.5" y="1645" fill="#eaeaea" stroke="#666" width="246" height="65" name="Agent" rx="3" ry="3" class="actor actor-bottom"/><text x="1748.5" y="1677.5" dominant-baseline="central" alignment-baseline="central" class="actor actor-box" style="text-anchor: middle; font-size: 16px; font-weight: 400;"><tspan x="1748.5" dy="0">ctx.agents.create(xmtp-convoId)</tspan></text></g><g><rect x="1379.5" y="1645" fill="#eaeaea" stroke="#666" width="196" height="65" name="Deliver" rx="3" ry="3" class="actor actor-bottom"/><text x="1477.5" y="1677.5" dominant-baseline="central" alignment-baseline="central" class="actor actor-box" style="text-anchor: middle; font-size: 16px; font-weight: 400;"><tspan x="1477.5" dy="0">deliver() per-convo chain</tspan></text></g><g><rect x="996.5" y="1645" fill="#eaeaea" stroke="#666" width="154" height="65" name="Filter" rx="3" ry="3" class="actor actor-bottom"/><text x="1073.5" y="1677.5" dominant-baseline="central" alignment-baseline="central" class="actor actor-box" style="text-anchor: middle; font-size: 16px; font-weight: 400;"><tspan x="1073.5" dy="0">onMessage() filters</tspan></text></g><g><rect x="665.5" y="1645" fill="#eaeaea" stroke="#666" width="216" height="65" name="Stream" rx="3" ry="3" class="actor actor-bottom"/><text x="773.5" y="1677.5" dominant-baseline="central" alignment-baseline="central" class="actor actor-box" style="text-anchor: middle; font-size: 16px; font-weight: 400;"><tspan x="773.5" dy="0">streamAllMessages onValue</tspan></text></g><g><rect x="337" y="1645" fill="#eaeaea" stroke="#666" width="273" height="65" name="XMTP" rx="3" ry="3" class="actor actor-bottom"/><text x="473.5" y="1677.5" dominant-baseline="central" alignment-baseline="central" class="actor actor-box" style="text-anchor: middle; font-size: 16px; font-weight: 400;"><tspan x="473.5" dy="0">XMTP production network (libxmtp)</tspan></text></g><g><rect x="0" y="1645" fill="#eaeaea" stroke="#666" width="245" height="65" name="Phone" rx="3" ry="3" class="actor actor-bottom"/><text x="122.5" y="1677.5" dominant-baseline="central" alignment-baseline="central" class="actor actor-box" style="text-anchor: middle; font-size: 16px; font-weight: 400;"><tspan x="122.5" dy="0">Convos app (popup.convos.org)</tspan></text></g><g><line id="actor70" x1="3196" y1="65" x2="3196" y2="1645" class="actor-line 200" stroke-width="0.5px" stroke="#999" name="Reply" data-et="life-line" data-id="Reply"/><g id="root-70" data-et="participant" data-type="participant" data-id="Reply"><rect x="3108" y="0" fill="#eaeaea" stroke="#666" width="176" height="65" name="Reply" rx="3" ry="3" class="actor actor-top"/><text x="3196" y="32.5" dominant-baseline="central" alignment-baseline="central" class="actor actor-box" style="text-anchor: middle; font-size: 16px; font-weight: 400;"><tspan x="3196" dy="0">conversation.sendText</tspan></text></g></g><g><line id="actor69" x1="2929" y1="65" x2="2929" y2="1645" class="actor-line 200" stroke-width="0.5px" stroke="#999" name="Wallet" data-et="life-line" data-id="Wallet"/><g id="root-69" data-et="participant" data-type="participant" data-id="Wallet"><rect x="2854" y="0" fill="#eaeaea" stroke="#666" width="150" height="65" name="Wallet" rx="3" ry="3" class="actor actor-top"/><text x="2929" y="32.5" dominant-baseline="central" alignment-baseline="central" class="actor actor-box" style="text-anchor: middle; font-size: 16px; font-weight: 400;"><tspan x="2929" dy="0">ctx.wallet (OWS)</tspan></text></g></g><g><line id="actor68" x1="2679" y1="65" x2="2679" y2="1645" class="actor-line 200" stroke-width="0.5px" stroke="#999" name="Tools" data-et="life-line" data-id="Tools"/><g id="root-68" data-et="participant" data-type="participant" data-id="Tools"><rect x="2604" y="0" fill="#eaeaea" stroke="#666" width="150" height="65" name="Tools" rx="3" ry="3" class="actor actor-top"/><text x="2679" y="32.5" dominant-baseline="central" alignment-baseline="central" class="actor actor-box" style="text-anchor: middle; font-size: 16px; font-weight: 400;"><tspan x="2679" dy="0">ctx.tools executor</tspan></text></g></g><g><line id="actor67" x1="2393" y1="65" x2="2393" y2="1645" class="actor-line 200" stroke-width="0.5px" stroke="#999" name="LLM" data-et="life-line" data-id="LLM"/><g id="root-67" data-et="participant" data-type="participant" data-id="LLM"><rect x="2318" y="0" fill="#eaeaea" stroke="#666" width="150" height="65" name="LLM" rx="3" ry="3" class="actor actor-top"/><text x="2393" y="32.5" dominant-baseline="central" alignment-baseline="central" class="actor actor-box" style="text-anchor: middle; font-size: 16px; font-weight: 400;"><tspan x="2393" dy="0">DeepSeek LLM</tspan></text></g></g><g><line id="actor66" x1="2116.5" y1="65" x2="2116.5" y2="1645" class="actor-line 200" stroke-width="0.5px" stroke="#999" name="Policy" data-et="life-line" data-id="Policy"/><g id="root-66" data-et="participant" data-type="participant" data-id="Policy"><rect x="2002" y="0" fill="#eaeaea" stroke="#666" width="229" height="65" name="Policy" rx="3" ry="3" class="actor actor-top"/><text x="2116.5" y="32.5" dominant-baseline="central" alignment-baseline="central" class="actor actor-box" style="text-anchor: middle; font-size: 16px; font-weight: 400;"><tspan x="2116.5" dy="0">treasury-policy agent/request</tspan></text></g></g><g><line id="actor65" x1="1748.5" y1="65" x2="1748.5" y2="1645" class="actor-line 200" stroke-width="0.5px" stroke="#999" name="Agent" data-et="life-line" data-id="Agent"/><g id="root-65" data-et="participant" data-type="participant" data-id="Agent"><rect x="1625.5" y="0" fill="#eaeaea" stroke="#666" width="246" height="65" name="Agent" rx="3" ry="3" class="actor actor-top"/><text x="1748.5" y="32.5" dominant-baseline="central" alignment-baseline="central" class="actor actor-box" style="text-anchor: middle; font-size: 16px; font-weight: 400;"><tspan x="1748.5" dy="0">ctx.agents.create(xmtp-convoId)</tspan></text></g></g><g><line id="actor64" x1="1477.5" y1="65" x2="1477.5" y2="1645" class="actor-line 200" stroke-width="0.5px" stroke="#999" name="Deliver" data-et="life-line" data-id="Deliver"/><g id="root-64" data-et="participant" data-type="participant" data-id="Deliver"><rect x="1379.5" y="0" fill="#eaeaea" stroke="#666" width="196" height="65" name="Deliver" rx="3" ry="3" class="actor actor-top"/><text x="1477.5" y="32.5" dominant-baseline="central" alignment-baseline="central" class="actor actor-box" style="text-anchor: middle; font-size: 16px; font-weight: 400;"><tspan x="1477.5" dy="0">deliver() per-convo chain</tspan></text></g></g><g><line id="actor63" x1="1073.5" y1="65" x2="1073.5" y2="1645" class="actor-line 200" stroke-width="0.5px" stroke="#999" name="Filter" data-et="life-line" data-id="Filter"/><g id="root-63" data-et="participant" data-type="participant" data-id="Filter"><rect x="996.5" y="0" fill="#eaeaea" stroke="#666" width="154" height="65" name="Filter" rx="3" ry="3" class="actor actor-top"/><text x="1073.5" y="32.5" dominant-baseline="central" alignment-baseline="central" class="actor actor-box" style="text-anchor: middle; font-size: 16px; font-weight: 400;"><tspan x="1073.5" dy="0">onMessage() filters</tspan></text></g></g><g><line id="actor62" x1="773.5" y1="65" x2="773.5" y2="1645" class="actor-line 200" stroke-width="0.5px" stroke="#999" name="Stream" data-et="life-line" data-id="Stream"/><g id="root-62" data-et="participant" data-type="participant" data-id="Stream"><rect x="665.5" y="0" fill="#eaeaea" stroke="#666" width="216" height="65" name="Stream" rx="3" ry="3" class="actor actor-top"/><text x="773.5" y="32.5" dominant-baseline="central" alignment-baseline="central" class="actor actor-box" style="text-anchor: middle; font-size: 16px; font-weight: 400;"><tspan x="773.5" dy="0">streamAllMessages onValue</tspan></text></g></g><g><line id="actor61" x1="473.5" y1="65" x2="473.5" y2="1645" class="actor-line 200" stroke-width="0.5px" stroke="#999" name="XMTP" data-et="life-line" data-id="XMTP"/><g id="root-61" data-et="participant" data-type="participant" data-id="XMTP"><rect x="337" y="0" fill="#eaeaea" stroke="#666" width="273" height="65" name="XMTP" rx="3" ry="3" class="actor actor-top"/><text x="473.5" y="32.5" dominant-baseline="central" alignment-baseline="central" class="actor actor-box" style="text-anchor: middle; font-size: 16px; font-weight: 400;"><tspan x="473.5" dy="0">XMTP production network (libxmtp)</tspan></text></g></g><g><line id="actor60" x1="122.5" y1="65" x2="122.5" y2="1645" class="actor-line 200" stroke-width="0.5px" stroke="#999" name="Phone" data-et="life-line" data-id="Phone"/><g id="root-60" data-et="participant" data-type="participant" data-id="Phone"><rect x="0" y="0" fill="#eaeaea" stroke="#666" width="245" height="65" name="Phone" rx="3" ry="3" class="actor actor-top"/><text x="122.5" y="32.5" dominant-baseline="central" alignment-baseline="central" class="actor actor-box" style="text-anchor: middle; font-size: 16px; font-weight: 400;"><tspan x="122.5" dy="0">Convos app (popup.convos.org)</tspan></text></g></g><style>#markdown-mermaid-dzxil4-114{font-family:var(--font-family-sans);font-size:16px;fill:#d4d4d4;}@keyframes edge-animation-frame{from{stroke-dashoffset:0;}}@keyframes dash{to{stroke-dashoffset:0;}}#markdown-mermaid-dzxil4-114 .edge-animation-slow{stroke-dasharray:9,5!important;stroke-dashoffset:900;animation:dash 50s linear infinite;stroke-linecap:round;}#markdown-mermaid-dzxil4-114 .edge-animation-fast{stroke-dasharray:9,5!important;stroke-dashoffset:900;animation:dash 20s linear infinite;stroke-linecap:round;}#markdown-mermaid-dzxil4-114 .error-icon{fill:#1e1e1e;}#markdown-mermaid-dzxil4-114 .error-text{fill:#e1e1e1;stroke:#e1e1e1;}#markdown-mermaid-dzxil4-114 .edge-thickness-normal{stroke-width:1px;}#markdown-mermaid-dzxil4-114 .edge-thickness-thick{stroke-width:3.5px;}#markdown-mermaid-dzxil4-114 .edge-pattern-solid{stroke-dasharray:0;}#markdown-mermaid-dzxil4-114 .edge-thickness-invisible{stroke-width:0;fill:none;}#markdown-mermaid-dzxil4-114 .edge-pattern-dashed{stroke-dasharray:3;}#markdown-mermaid-dzxil4-114 .edge-pattern-dotted{stroke-dasharray:2;}#markdown-mermaid-dzxil4-114 .marker{fill:rgba(204, 204, 204, 0.7);stroke:rgba(204, 204, 204, 0.7);}#markdown-mermaid-dzxil4-114 .marker.cross{stroke:rgba(204, 204, 204, 0.7);}#markdown-mermaid-dzxil4-114 svg{font-family:var(--font-family-sans);font-size:16px;}#markdown-mermaid-dzxil4-114 p{margin:0;}#markdown-mermaid-dzxil4-114 .actor{stroke:rgba(204, 204, 204, 0.2);fill:#252526;stroke-width:1;}#markdown-mermaid-dzxil4-114 rect.actor.outer-path[data-look="neo"]{filter:drop-shadow( 1px 2px 2px rgba(185,185,185,1));}#markdown-mermaid-dzxil4-114 rect.note[data-look="neo"]{stroke:rgba(204, 204, 204, 0.2);fill:#3c3c3c;filter:drop-shadow( 1px 2px 2px rgba(185,185,185,1));}#markdown-mermaid-dzxil4-114 text.actor&gt;tspan{fill:#d4d4d4;stroke:none;}#markdown-mermaid-dzxil4-114 .actor-line{stroke:rgba(204, 204, 204, 0.7);}#markdown-mermaid-dzxil4-114 .innerArc{stroke-width:1.5;stroke-dasharray:none;}#markdown-mermaid-dzxil4-114 .messageLine0{stroke-width:1.5;stroke-dasharray:none;stroke:#d4d4d4;}#markdown-mermaid-dzxil4-114 .messageLine1{stroke-width:1.5;stroke-dasharray:2,2;stroke:#d4d4d4;}#markdown-mermaid-dzxil4-114 [id$="-arrowhead"] path{fill:#d4d4d4;stroke:#d4d4d4;}#markdown-mermaid-dzxil4-114 .sequenceNumber{fill:rgba(51, 51, 51, 0.7);}#markdown-mermaid-dzxil4-114 [id$="-sequencenumber"]{fill:#d4d4d4;}#markdown-mermaid-dzxil4-114 [id$="-crosshead"] path{fill:#d4d4d4;stroke:#d4d4d4;}#markdown-mermaid-dzxil4-114 .messageText{fill:#d4d4d4;stroke:none;}#markdown-mermaid-dzxil4-114 .labelBox{stroke:rgba(204, 204, 204, 0.2);fill:#252526;filter:none;}#markdown-mermaid-dzxil4-114 .labelText,#markdown-mermaid-dzxil4-114 .labelText&gt;tspan{fill:#d4d4d4;stroke:none;}#markdown-mermaid-dzxil4-114 .loopText,#markdown-mermaid-dzxil4-114 .loopText&gt;tspan{fill:#d4d4d4;stroke:none;}#markdown-mermaid-dzxil4-114 .sectionTitle,#markdown-mermaid-dzxil4-114 .sectionTitle&gt;tspan{fill:#d4d4d4;stroke:none;}#markdown-mermaid-dzxil4-114 .loopLine{stroke-width:2px;stroke-dasharray:2,2;stroke:rgba(204, 204, 204, 0.2);fill:rgba(204, 204, 204, 0.2);}#markdown-mermaid-dzxil4-114 .note{stroke:rgba(204, 204, 204, 0.2);fill:#3c3c3c;}#markdown-mermaid-dzxil4-114 .noteText,#markdown-mermaid-dzxil4-114 .noteText&gt;tspan{fill:#d4d4d4;stroke:none;font-weight:normal;}#markdown-mermaid-dzxil4-114 .activation0{fill:#3c3c3c;stroke:hsl(0, 0%, 13.5294117647%);}#markdown-mermaid-dzxil4-114 .activation1{fill:#3c3c3c;stroke:hsl(0, 0%, 13.5294117647%);}#markdown-mermaid-dzxil4-114 .activation2{fill:#3c3c3c;stroke:hsl(0, 0%, 13.5294117647%);}#markdown-mermaid-dzxil4-114 .actorPopupMenu{position:absolute;}#markdown-mermaid-dzxil4-114 .actorPopupMenuPanel{position:absolute;fill:#252526;box-shadow:0px 8px 16px 0px rgba(0,0,0,0.2);filter:drop-shadow(3px 5px 2px rgb(0 0 0 / 0.4));}#markdown-mermaid-dzxil4-114 .actor-man circle,#markdown-mermaid-dzxil4-114 line{fill:#252526;stroke-width:2px;}#markdown-mermaid-dzxil4-114 g rect.rect{filter:drop-shadow( 1px 2px 2px rgba(185,185,185,1));stroke:rgba(204, 204, 204, 0.2);}#markdown-mermaid-dzxil4-114 .node .neo-node{stroke:rgba(204, 204, 204, 0.2);}#markdown-mermaid-dzxil4-114 [data-look="neo"].node rect,#markdown-mermaid-dzxil4-114 [data-look="neo"].cluster rect,#markdown-mermaid-dzxil4-114 [data-look="neo"].node polygon{stroke:url(#markdown-mermaid-dzxil4-114-gradient);filter:drop-shadow( 1px 2px 2px rgba(185,185,185,1));}#markdown-mermaid-dzxil4-114 [data-look="neo"].swimlane.cluster rect{filter:none;}#markdown-mermaid-dzxil4-114 [data-look="neo"].node path{stroke:url(#markdown-mermaid-dzxil4-114-gradient);stroke-width:1px;}#markdown-mermaid-dzxil4-114 [data-look="neo"].node .outer-path{filter:drop-shadow( 1px 2px 2px rgba(185,185,185,1));}#markdown-mermaid-dzxil4-114 [data-look="neo"].node .neo-line path{stroke:rgba(204, 204, 204, 0.2);filter:none;}#markdown-mermaid-dzxil4-114 [data-look="neo"].node circle{stroke:url(#markdown-mermaid-dzxil4-114-gradient);filter:drop-shadow( 1px 2px 2px rgba(185,185,185,1));}#markdown-mermaid-dzxil4-114 [data-look="neo"].node circle .state-start{fill:#000000;}#markdown-mermaid-dzxil4-114 [data-look="neo"].icon-shape .icon{fill:url(#markdown-mermaid-dzxil4-114-gradient);filter:drop-shadow( 1px 2px 2px rgba(185,185,185,1));}#markdown-mermaid-dzxil4-114 [data-look="neo"].icon-shape .icon-neo path{stroke:url(#markdown-mermaid-dzxil4-114-gradient);filter:drop-shadow( 1px 2px 2px rgba(185,185,185,1));}#markdown-mermaid-dzxil4-114 :root{--mermaid-font-family:"trebuchet ms",verdana,arial,sans-serif;}</style><g/><defs><symbol id="markdown-mermaid-dzxil4-114-computer" width="24" height="24"><path transform="scale(.5)" d="M2 2v13h20v-13h-20zm18 11h-16v-9h16v9zm-10.228 6l.466-1h3.524l.467 1h-4.457zm14.228 3h-24l2-6h2.104l-1.33 4h18.45l-1.297-4h2.073l2 6zm-5-10h-14v-7h14v7z"/></symbol></defs><defs><symbol id="markdown-mermaid-dzxil4-114-database" fill-rule="evenodd" clip-rule="evenodd"><path transform="scale(.5)" d="M12.258.001l.256.004.255.005.253.008.251.01.249.012.247.015.246.016.242.019.241.02.239.023.236.024.233.027.231.028.229.031.225.032.223.034.22.036.217.038.214.04.211.041.208.043.205.045.201.046.198.048.194.05.191.051.187.053.183.054.18.056.175.057.172.059.168.06.163.061.16.063.155.064.15.066.074.033.073.033.071.034.07.034.069.035.068.035.067.035.066.035.064.036.064.036.062.036.06.036.06.037.058.037.058.037.055.038.055.038.053.038.052.038.051.039.05.039.048.039.047.039.045.04.044.04.043.04.041.04.04.041.039.041.037.041.036.041.034.041.033.042.032.042.03.042.029.042.027.042.026.043.024.043.023.043.021.043.02.043.018.044.017.043.015.044.013.044.012.044.011.045.009.044.007.045.006.045.004.045.002.045.001.045v17l-.001.045-.002.045-.004.045-.006.045-.007.045-.009.044-.011.045-.012.044-.013.044-.015.044-.017.043-.018.044-.02.043-.021.043-.023.043-.024.043-.026.043-.027.042-.029.042-.03.042-.032.042-.033.042-.034.041-.036.041-.037.041-.039.041-.04.041-.041.04-.043.04-.044.04-.045.04-.047.039-.048.039-.05.039-.051.039-.052.038-.053.038-.055.038-.055.038-.058.037-.058.037-.06.037-.06.036-.062.036-.064.036-.064.036-.066.035-.067.035-.068.035-.069.035-.07.034-.071.034-.073.033-.074.033-.15.066-.155.064-.16.063-.163.061-.168.06-.172.059-.175.057-.18.056-.183.054-.187.053-.191.051-.194.05-.198.048-.201.046-.205.045-.208.043-.211.041-.214.04-.217.038-.22.036-.223.034-.225.032-.229.031-.231.028-.233.027-.236.024-.239.023-.241.02-.242.019-.246.016-.247.015-.249.012-.251.01-.253.008-.255.005-.256.004-.258.001-.258-.001-.256-.004-.255-.005-.253-.008-.251-.01-.249-.012-.247-.015-.245-.016-.243-.019-.241-.02-.238-.023-.236-.024-.234-.027-.231-.028-.228-.031-.226-.032-.223-.034-.22-.036-.217-.038-.214-.04-.211-.041-.208-.043-.204-.045-.201-.046-.198-.048-.195-.05-.19-.051-.187-.053-.184-.054-.179-.056-.176-.057-.172-.059-.167-.06-.164-.061-.159-.063-.155-.064-.151-.066-.074-.033-.072-.033-.072-.034-.07-.034-.069-.035-.068-.035-.067-.035-.066-.035-.064-.036-.063-.036-.062-.036-.061-.036-.06-.037-.058-.037-.057-.037-.056-.038-.055-.038-.053-.038-.052-.038-.051-.039-.049-.039-.049-.039-.046-.039-.046-.04-.044-.04-.043-.04-.041-.04-.04-.041-.039-.041-.037-.041-.036-.041-.034-.041-.033-.042-.032-.042-.03-.042-.029-.042-.027-.042-.026-.043-.024-.043-.023-.043-.021-.043-.02-.043-.018-.044-.017-.043-.015-.044-.013-.044-.012-.044-.011-.045-.009-.044-.007-.045-.006-.045-.004-.045-.002-.045-.001-.045v-17l.001-.045.002-.045.004-.045.006-.045.007-.045.009-.044.011-.045.012-.044.013-.044.015-.044.017-.043.018-.044.02-.043.021-.043.023-.043.024-.043.026-.043.027-.042.029-.042.03-.042.032-.042.033-.042.034-.041.036-.041.037-.041.039-.041.04-.041.041-.04.043-.04.044-.04.046-.04.046-.039.049-.039.049-.039.051-.039.052-.038.053-.038.055-.038.056-.038.057-.037.058-.037.06-.037.061-.036.062-.036.063-.036.064-.036.066-.035.067-.035.068-.035.069-.035.07-.034.072-.034.072-.033.074-.033.151-.066.155-.064.159-.063.164-.061.167-.06.172-.059.176-.057.179-.056.184-.054.187-.053.19-.051.195-.05.198-.048.201-.046.204-.045.208-.043.211-.041.214-.04.217-.038.22-.036.223-.034.226-.032.228-.031.231-.028.234-.027.236-.024.238-.023.241-.02.243-.019.245-.016.247-.015.249-.012.251-.01.253-.008.255-.005.256-.004.258-.001.258.001zm-9.258 20.499v.01l.001.021.003.021.004.022.005.021.006.022.007.022.009.023.01.022.011.023.012.023.013.023.015.023.016.024.017.023.018.024.019.024.021.024.022.025.023.024.024.025.052.049.056.05.061.051.066.051.07.051.075.051.079.052.084.052.088.052.092.052.097.052.102.051.105.052.11.052.114.051.119.051.123.051.127.05.131.05.135.05.139.048.144.049.147.047.152.047.155.047.16.045.163.045.167.043.171.043.176.041.178.041.183.039.187.039.19.037.194.035.197.035.202.033.204.031.209.03.212.029.216.027.219.025.222.024.226.021.23.02.233.018.236.016.24.015.243.012.246.01.249.008.253.005.256.004.259.001.26-.001.257-.004.254-.005.25-.008.247-.011.244-.012.241-.014.237-.016.233-.018.231-.021.226-.021.224-.024.22-.026.216-.027.212-.028.21-.031.205-.031.202-.034.198-.034.194-.036.191-.037.187-.039.183-.04.179-.04.175-.042.172-.043.168-.044.163-.045.16-.046.155-.046.152-.047.148-.048.143-.049.139-.049.136-.05.131-.05.126-.05.123-.051.118-.052.114-.051.11-.052.106-.052.101-.052.096-.052.092-.052.088-.053.083-.051.079-.052.074-.052.07-.051.065-.051.06-.051.056-.05.051-.05.023-.024.023-.025.021-.024.02-.024.019-.024.018-.024.017-.024.015-.023.014-.024.013-.023.012-.023.01-.023.01-.022.008-.022.006-.022.006-.022.004-.022.004-.021.001-.021.001-.021v-4.127l-.077.055-.08.053-.083.054-.085.053-.087.052-.09.052-.093.051-.095.05-.097.05-.1.049-.102.049-.105.048-.106.047-.109.047-.111.046-.114.045-.115.045-.118.044-.12.043-.122.042-.124.042-.126.041-.128.04-.13.04-.132.038-.134.038-.135.037-.138.037-.139.035-.142.035-.143.034-.144.033-.147.032-.148.031-.15.03-.151.03-.153.029-.154.027-.156.027-.158.026-.159.025-.161.024-.162.023-.163.022-.165.021-.166.02-.167.019-.169.018-.169.017-.171.016-.173.015-.173.014-.175.013-.175.012-.177.011-.178.01-.179.008-.179.008-.181.006-.182.005-.182.004-.184.003-.184.002h-.37l-.184-.002-.184-.003-.182-.004-.182-.005-.181-.006-.179-.008-.179-.008-.178-.01-.176-.011-.176-.012-.175-.013-.173-.014-.172-.015-.171-.016-.17-.017-.169-.018-.167-.019-.166-.02-.165-.021-.163-.022-.162-.023-.161-.024-.159-.025-.157-.026-.156-.027-.155-.027-.153-.029-.151-.03-.15-.03-.148-.031-.146-.032-.145-.033-.143-.034-.141-.035-.14-.035-.137-.037-.136-.037-.134-.038-.132-.038-.13-.04-.128-.04-.126-.041-.124-.042-.122-.042-.12-.044-.117-.043-.116-.045-.113-.045-.112-.046-.109-.047-.106-.047-.105-.048-.102-.049-.1-.049-.097-.05-.095-.05-.093-.052-.09-.051-.087-.052-.085-.053-.083-.054-.08-.054-.077-.054v4.127zm0-5.654v.011l.001.021.003.021.004.021.005.022.006.022.007.022.009.022.01.022.011.023.012.023.013.023.015.024.016.023.017.024.018.024.019.024.021.024.022.024.023.025.024.024.052.05.056.05.061.05.066.051.07.051.075.052.079.051.084.052.088.052.092.052.097.052.102.052.105.052.11.051.114.051.119.052.123.05.127.051.131.05.135.049.139.049.144.048.147.048.152.047.155.046.16.045.163.045.167.044.171.042.176.042.178.04.183.04.187.038.19.037.194.036.197.034.202.033.204.032.209.03.212.028.216.027.219.025.222.024.226.022.23.02.233.018.236.016.24.014.243.012.246.01.249.008.253.006.256.003.259.001.26-.001.257-.003.254-.006.25-.008.247-.01.244-.012.241-.015.237-.016.233-.018.231-.02.226-.022.224-.024.22-.025.216-.027.212-.029.21-.03.205-.032.202-.033.198-.035.194-.036.191-.037.187-.039.183-.039.179-.041.175-.042.172-.043.168-.044.163-.045.16-.045.155-.047.152-.047.148-.048.143-.048.139-.05.136-.049.131-.05.126-.051.123-.051.118-.051.114-.052.11-.052.106-.052.101-.052.096-.052.092-.052.088-.052.083-.052.079-.052.074-.051.07-.052.065-.051.06-.05.056-.051.051-.049.023-.025.023-.024.021-.025.02-.024.019-.024.018-.024.017-.024.015-.023.014-.023.013-.024.012-.022.01-.023.01-.023.008-.022.006-.022.006-.022.004-.021.004-.022.001-.021.001-.021v-4.139l-.077.054-.08.054-.083.054-.085.052-.087.053-.09.051-.093.051-.095.051-.097.05-.1.049-.102.049-.105.048-.106.047-.109.047-.111.046-.114.045-.115.044-.118.044-.12.044-.122.042-.124.042-.126.041-.128.04-.13.039-.132.039-.134.038-.135.037-.138.036-.139.036-.142.035-.143.033-.144.033-.147.033-.148.031-.15.03-.151.03-.153.028-.154.028-.156.027-.158.026-.159.025-.161.024-.162.023-.163.022-.165.021-.166.02-.167.019-.169.018-.169.017-.171.016-.173.015-.173.014-.175.013-.175.012-.177.011-.178.009-.179.009-.179.007-.181.007-.182.005-.182.004-.184.003-.184.002h-.37l-.184-.002-.184-.003-.182-.004-.182-.005-.181-.007-.179-.007-.179-.009-.178-.009-.176-.011-.176-.012-.175-.013-.173-.014-.172-.015-.171-.016-.17-.017-.169-.018-.167-.019-.166-.02-.165-.021-.163-.022-.162-.023-.161-.024-.159-.025-.157-.026-.156-.027-.155-.028-.153-.028-.151-.03-.15-.03-.148-.031-.146-.033-.145-.033-.143-.033-.141-.035-.14-.036-.137-.036-.136-.037-.134-.038-.132-.039-.13-.039-.128-.04-.126-.041-.124-.042-.122-.043-.12-.043-.117-.044-.116-.044-.113-.046-.112-.046-.109-.046-.106-.047-.105-.048-.102-.049-.1-.049-.097-.05-.095-.051-.093-.051-.09-.051-.087-.053-.085-.052-.083-.054-.08-.054-.077-.054v4.139zm0-5.666v.011l.001.02.003.022.004.021.005.022.006.021.007.022.009.023.01.022.011.023.012.023.013.023.015.023.016.024.017.024.018.023.019.024.021.025.022.024.023.024.024.025.052.05.056.05.061.05.066.051.07.051.075.052.079.051.084.052.088.052.092.052.097.052.102.052.105.051.11.052.114.051.119.051.123.051.127.05.131.05.135.05.139.049.144.048.147.048.152.047.155.046.16.045.163.045.167.043.171.043.176.042.178.04.183.04.187.038.19.037.194.036.197.034.202.033.204.032.209.03.212.028.216.027.219.025.222.024.226.021.23.02.233.018.236.017.24.014.243.012.246.01.249.008.253.006.256.003.259.001.26-.001.257-.003.254-.006.25-.008.247-.01.244-.013.241-.014.237-.016.233-.018.231-.02.226-.022.224-.024.22-.025.216-.027.212-.029.21-.03.205-.032.202-.033.198-.035.194-.036.191-.037.187-.039.183-.039.179-.041.175-.042.172-.043.168-.044.163-.045.16-.045.155-.047.152-.047.148-.048.143-.049.139-.049.136-.049.131-.051.126-.05.123-.051.118-.052.114-.051.11-.052.106-.052.101-.052.096-.052.092-.052.088-.052.083-.052.079-.052.074-.052.07-.051.065-.051.06-.051.056-.05.051-.049.023-.025.023-.025.021-.024.02-.024.019-.024.018-.024.017-.024.015-.023.014-.024.013-.023.012-.023.01-.022.01-.023.008-.022.006-.022.006-.022.004-.022.004-.021.001-.021.001-.021v-4.153l-.077.054-.08.054-.083.053-.085.053-.087.053-.09.051-.093.051-.095.051-.097.05-.1.049-.102.048-.105.048-.106.048-.109.046-.111.046-.114.046-.115.044-.118.044-.12.043-.122.043-.124.042-.126.041-.128.04-.13.039-.132.039-.134.038-.135.037-.138.036-.139.036-.142.034-.143.034-.144.033-.147.032-.148.032-.15.03-.151.03-.153.028-.154.028-.156.027-.158.026-.159.024-.161.024-.162.023-.163.023-.165.021-.166.02-.167.019-.169.018-.169.017-.171.016-.173.015-.173.014-.175.013-.175.012-.177.01-.178.01-.179.009-.179.007-.181.006-.182.006-.182.004-.184.003-.184.001-.185.001-.185-.001-.184-.001-.184-.003-.182-.004-.182-.006-.181-.006-.179-.007-.179-.009-.178-.01-.176-.01-.176-.012-.175-.013-.173-.014-.172-.015-.171-.016-.17-.017-.169-.018-.167-.019-.166-.02-.165-.021-.163-.023-.162-.023-.161-.024-.159-.024-.157-.026-.156-.027-.155-.028-.153-.028-.151-.03-.15-.03-.148-.032-.146-.032-.145-.033-.143-.034-.141-.034-.14-.036-.137-.036-.136-.037-.134-.038-.132-.039-.13-.039-.128-.041-.126-.041-.124-.041-.122-.043-.12-.043-.117-.044-.116-.044-.113-.046-.112-.046-.109-.046-.106-.048-.105-.048-.102-.048-.1-.05-.097-.049-.095-.051-.093-.051-.09-.052-.087-.052-.085-.053-.083-.053-.08-.054-.077-.054v4.153zm8.74-8.179l-.257.004-.254.005-.25.008-.247.011-.244.012-.241.014-.237.016-.233.018-.231.021-.226.022-.224.023-.22.026-.216.027-.212.028-.21.031-.205.032-.202.033-.198.034-.194.036-.191.038-.187.038-.183.04-.179.041-.175.042-.172.043-.168.043-.163.045-.16.046-.155.046-.152.048-.148.048-.143.048-.139.049-.136.05-.131.05-.126.051-.123.051-.118.051-.114.052-.11.052-.106.052-.101.052-.096.052-.092.052-.088.052-.083.052-.079.052-.074.051-.07.052-.065.051-.06.05-.056.05-.051.05-.023.025-.023.024-.021.024-.02.025-.019.024-.018.024-.017.023-.015.024-.014.023-.013.023-.012.023-.01.023-.01.022-.008.022-.006.023-.006.021-.004.022-.004.021-.001.021-.001.021.001.021.001.021.004.021.004.022.006.021.006.023.008.022.01.022.01.023.012.023.013.023.014.023.015.024.017.023.018.024.019.024.02.025.021.024.023.024.023.025.051.05.056.05.06.05.065.051.07.052.074.051.079.052.083.052.088.052.092.052.096.052.101.052.106.052.11.052.114.052.118.051.123.051.126.051.131.05.136.05.139.049.143.048.148.048.152.048.155.046.16.046.163.045.168.043.172.043.175.042.179.041.183.04.187.038.191.038.194.036.198.034.202.033.205.032.21.031.212.028.216.027.22.026.224.023.226.022.231.021.233.018.237.016.241.014.244.012.247.011.25.008.254.005.257.004.26.001.26-.001.257-.004.254-.005.25-.008.247-.011.244-.012.241-.014.237-.016.233-.018.231-.021.226-.022.224-.023.22-.026.216-.027.212-.028.21-.031.205-.032.202-.033.198-.034.194-.036.191-.038.187-.038.183-.04.179-.041.175-.042.172-.043.168-.043.163-.045.16-.046.155-.046.152-.048.148-.048.143-.048.139-.049.136-.05.131-.05.126-.051.123-.051.118-.051.114-.052.11-.052.106-.052.101-.052.096-.052.092-.052.088-.052.083-.052.079-.052.074-.051.07-.052.065-.051.06-.05.056-.05.051-.05.023-.025.023-.024.021-.024.02-.025.019-.024.018-.024.017-.023.015-.024.014-.023.013-.023.012-.023.01-.023.01-.022.008-.022.006-.023.006-.021.004-.022.004-.021.001-.021.001-.021-.001-.021-.001-.021-.004-.021-.004-.022-.006-.021-.006-.023-.008-.022-.01-.022-.01-.023-.012-.023-.013-.023-.014-.023-.015-.024-.017-.023-.018-.024-.019-.024-.02-.025-.021-.024-.023-.024-.023-.025-.051-.05-.056-.05-.06-.05-.065-.051-.07-.052-.074-.051-.079-.052-.083-.052-.088-.052-.092-.052-.096-.052-.101-.052-.106-.052-.11-.052-.114-.052-.118-.051-.123-.051-.126-.051-.131-.05-.136-.05-.139-.049-.143-.048-.148-.048-.152-.048-.155-.046-.16-.046-.163-.045-.168-.043-.172-.043-.175-.042-.179-.041-.183-.04-.187-.038-.191-.038-.194-.036-.198-.034-.202-.033-.205-.032-.21-.031-.212-.028-.216-.027-.22-.026-.224-.023-.226-.022-.231-.021-.233-.018-.237-.016-.241-.014-.244-.012-.247-.011-.25-.008-.254-.005-.257-.004-.26-.001-.26.001z"/></symbol></defs><defs><symbol id="markdown-mermaid-dzxil4-114-clock" width="24" height="24"><path transform="scale(.5)" d="M12 2c5.514 0 10 4.486 10 10s-4.486 10-10 10-10-4.486-10-10 4.486-10 10-10zm0-2c-6.627 0-12 5.373-12 12s5.373 12 12 12 12-5.373 12-12-5.373-12-12-12zm5.848 12.459c.202.038.202.333.001.372-1.907.361-6.045 1.111-6.547 1.111-.719 0-1.301-.582-1.301-1.301 0-.512.77-5.447 1.125-7.445.034-.192.312-.181.343.014l.985 6.238 5.394 1.011z"/></symbol></defs><defs><marker id="markdown-mermaid-dzxil4-114-arrowhead" refX="7.9" refY="5" markerUnits="userSpaceOnUse" markerWidth="12" markerHeight="12" orient="auto-start-reverse"><path d="M -1 0 L 10 5 L 0 10 z"/></marker></defs><defs><marker id="markdown-mermaid-dzxil4-114-crosshead" markerWidth="15" markerHeight="8" orient="auto" refX="4" refY="4.5"><path fill="none" stroke="#000000" stroke-width="1pt" d="M 1,2 L 6,7 M 6,2 L 1,7" style="stroke-dasharray: 0, 0;"/></marker></defs><defs><marker id="markdown-mermaid-dzxil4-114-filled-head" refX="15.5" refY="7" markerWidth="20" markerHeight="28" orient="auto"><path d="M 18,7 L9,13 L14,7 L9,1 Z"/></marker></defs><defs><marker id="markdown-mermaid-dzxil4-114-sequencenumber" refX="15" refY="15" markerWidth="60" markerHeight="40" orient="auto"><circle cx="15" cy="15" r="6"/></marker></defs><defs><marker id="markdown-mermaid-dzxil4-114-solidTopArrowHead" refX="7.9" refY="7.25" markerUnits="userSpaceOnUse" markerWidth="12" markerHeight="12" orient="auto-start-reverse"><path d="M 0 0 L 10 8 L 0 8 z"/></marker></defs><defs><marker id="markdown-mermaid-dzxil4-114-solidBottomArrowHead" refX="7.9" refY="0.75" markerUnits="userSpaceOnUse" markerWidth="12" markerHeight="12" orient="auto-start-reverse"><path d="M 0 0 L 10 0 L 0 8 z"/></marker></defs><defs><marker id="markdown-mermaid-dzxil4-114-stickTopArrowHead" refX="7.5" refY="7" markerUnits="userSpaceOnUse" markerWidth="12" markerHeight="12" orient="auto-start-reverse"><path d="M 0 0 L 7 7" stroke="black" stroke-width="1.5" fill="none"/></marker></defs><defs><marker id="markdown-mermaid-dzxil4-114-stickBottomArrowHead" refX="7.5" refY="0" markerUnits="userSpaceOnUse" markerWidth="12" markerHeight="12" orient="auto-start-reverse"><path d="M 0 7 L 7 0" stroke="black" stroke-width="1.5" fill="none"/></marker></defs><g data-et="control-structure" data-id="i26"><line x1="111.5" y1="797" x2="3207" y2="797" class="loopLine"/><line x1="3207" y1="797" x2="3207" y2="1625" class="loopLine"/><line x1="111.5" y1="1625" x2="3207" y2="1625" class="loopLine"/><line x1="111.5" y1="797" x2="111.5" y2="1625" class="loopLine"/><line x1="111.5" y1="1532" x2="3207" y2="1532" class="loopLine" style="stroke-dasharray: 3, 3;"/><polygon points="111.5,797 161.5,797 161.5,810 153.1,817 111.5,817" class="labelBox"/><text x="137" y="810" text-anchor="middle" dominant-baseline="middle" alignment-baseline="middle" class="labelText" style="font-size: 16px; font-weight: 400;">alt</text><text x="1684.25" y="815" text-anchor="middle" class="loopText" style="font-size: 16px; font-weight: 400;"><tspan x="1684.25">[approved]</tspan></text><text x="1659.25" y="1550" text-anchor="middle" class="sectionTitle" style="font-size: 16px; font-weight: 400;">[denied]</text></g><text x="297" y="80" text-anchor="middle" dominant-baseline="middle" alignment-baseline="middle" class="messageText" dy="1em" style="font-size: 16px; font-weight: 400;">sendText("what is your wallet address?")</text><line x1="123.5" y1="117" x2="469.5" y2="117" class="messageLine0" data-et="message" data-id="i0" data-from="Phone" data-to="XMTP" stroke-width="2" stroke="none" marker-end="url(#markdown-mermaid-dzxil4-114-arrowhead)" style="fill: none;"/><text x="622" y="132" text-anchor="middle" dominant-baseline="middle" alignment-baseline="middle" class="messageText" dy="1em" style="font-size: 16px; font-weight: 400;">onValue(XmtpDecodedMessage)</text><line x1="474.5" y1="169" x2="769.5" y2="169" class="messageLine0" data-et="message" data-id="i1" data-from="XMTP" data-to="Stream" stroke-width="2" stroke="none" marker-end="url(#markdown-mermaid-dzxil4-114-arrowhead)" style="fill: none;"/><text x="922" y="184" text-anchor="middle" dominant-baseline="middle" alignment-baseline="middle" class="messageText" dy="1em" style="font-size: 16px; font-weight: 400;">text? !own? !dedup? activeConv?</text><line x1="774.5" y1="221" x2="1069.5" y2="221" class="messageLine0" data-et="message" data-id="i2" data-from="Stream" data-to="Filter" stroke-width="2" stroke="none" marker-end="url(#markdown-mermaid-dzxil4-114-arrowhead)" style="fill: none;"/><text x="1075" y="236" text-anchor="middle" dominant-baseline="middle" alignment-baseline="middle" class="messageText" dy="1em" style="font-size: 16px; font-weight: 400;">emit xmtp/inbound {messageId, convId, senderInboxId}</text><path d="M 1074.5,273 C 1134.5,263 1134.5,303 1074.5,293" class="messageLine0" data-et="message" data-id="i3" data-from="Filter" data-to="Filter" stroke-width="2" stroke="none" marker-end="url(#markdown-mermaid-dzxil4-114-arrowhead)" style="fill: none;"/><text x="1274" y="318" text-anchor="middle" dominant-baseline="middle" alignment-baseline="middle" class="messageText" dy="1em" style="font-size: 16px; font-weight: 400;">deliver(message) — chained per conversationId</text><line x1="1074.5" y1="355" x2="1473.5" y2="355" class="messageLine0" data-et="message" data-id="i4" data-from="Filter" data-to="Deliver" stroke-width="2" stroke="none" marker-end="url(#markdown-mermaid-dzxil4-114-arrowhead)" style="fill: none;"/><text x="1612" y="370" text-anchor="middle" dominant-baseline="middle" alignment-baseline="middle" class="messageText" dy="1em" style="font-size: 16px; font-weight: 400;">agentFor(conversationId)</text><line x1="1478.5" y1="407" x2="1744.5" y2="407" class="messageLine0" data-et="message" data-id="i5" data-from="Deliver" data-to="Agent" stroke-width="2" stroke="none" marker-end="url(#markdown-mermaid-dzxil4-114-arrowhead)" style="fill: none;"/><text x="1750" y="422" text-anchor="middle" dominant-baseline="middle" alignment-baseline="middle" class="messageText" dy="1em" style="font-size: 16px; font-weight: 400;">ctx.agents.create({sessionId: 'xmtp-'+convId, agentOptions:{provider,model}})</text><path d="M 1749.5,459 C 1809.5,449 1809.5,489 1749.5,479" class="messageLine0" data-et="message" data-id="i6" data-from="Agent" data-to="Agent" stroke-width="2" stroke="none" marker-end="url(#markdown-mermaid-dzxil4-114-arrowhead)" style="fill: none;"/><text x="1750" y="504" text-anchor="middle" dominant-baseline="middle" alignment-baseline="middle" class="messageText" dy="1em" style="font-size: 16px; font-weight: 400;">agent.followup(createUserMessage(content))</text><path d="M 1749.5,541 C 1809.5,531 1809.5,571 1749.5,561" class="messageLine0" data-et="message" data-id="i7" data-from="Agent" data-to="Agent" stroke-width="2" stroke="none" marker-end="url(#markdown-mermaid-dzxil4-114-arrowhead)" style="fill: none;"/><text x="1931" y="586" text-anchor="middle" dominant-baseline="middle" alignment-baseline="middle" class="messageText" dy="1em" style="font-size: 16px; font-weight: 400;">agent/request event</text><line x1="1749.5" y1="623" x2="2112.5" y2="623" class="messageLine0" data-et="message" data-id="i8" data-from="Agent" data-to="Policy" stroke-width="2" stroke="none" marker-end="url(#markdown-mermaid-dzxil4-114-arrowhead)" style="fill: none;"/><text x="2118" y="638" text-anchor="middle" dominant-baseline="middle" alignment-baseline="middle" class="messageText" dy="1em" style="font-size: 16px; font-weight: 400;">tokenMeter.measure(session) * inferenceUsdPerMillionTokens</text><path d="M 2117.5,675 C 2177.5,665 2177.5,705 2117.5,695" class="messageLine0" data-et="message" data-id="i9" data-from="Policy" data-to="Policy" stroke-width="2" stroke="none" marker-end="url(#markdown-mermaid-dzxil4-114-arrowhead)" style="fill: none;"/><text x="2118" y="720" text-anchor="middle" dominant-baseline="middle" alignment-baseline="middle" class="messageText" dy="1em" style="font-size: 16px; font-weight: 400;">ctx.treasury.authorize('inference', cost)</text><path d="M 2117.5,757 C 2177.5,747 2177.5,787 2117.5,777" class="messageLine0" data-et="message" data-id="i10" data-from="Policy" data-to="Policy" stroke-width="2" stroke="none" marker-end="url(#markdown-mermaid-dzxil4-114-arrowhead)" style="fill: none;"/><text x="2253" y="848" text-anchor="middle" dominant-baseline="middle" alignment-baseline="middle" class="messageText" dy="1em" style="font-size: 16px; font-weight: 400;">next() — LLM call proceeds</text><line x1="2117.5" y1="885" x2="2389" y2="885" class="messageLine0" data-et="message" data-id="i12" data-from="Policy" data-to="LLM" stroke-width="2" stroke="none" marker-end="url(#markdown-mermaid-dzxil4-114-arrowhead)" style="fill: none;"/><text x="2394" y="900" text-anchor="middle" dominant-baseline="middle" alignment-baseline="middle" class="messageText" dy="1em" style="font-size: 16px; font-weight: 400;">persona system-prompt + history + tools list</text><path d="M 2394,937 C 2454,927 2454,967 2394,957" class="messageLine0" data-et="message" data-id="i13" data-from="LLM" data-to="LLM" stroke-width="2" stroke="none" marker-end="url(#markdown-mermaid-dzxil4-114-arrowhead)" style="fill: none;"/><text x="2535" y="982" text-anchor="middle" dominant-baseline="middle" alignment-baseline="middle" class="messageText" dy="1em" style="font-size: 16px; font-weight: 400;">calls wallet_info / get_balances</text><line x1="2394" y1="1019" x2="2675" y2="1019" class="messageLine0" data-et="message" data-id="i14" data-from="LLM" data-to="Tools" stroke-width="2" stroke="none" marker-end="url(#markdown-mermaid-dzxil4-114-arrowhead)" style="fill: none;"/><text x="2803" y="1034" text-anchor="middle" dominant-baseline="middle" alignment-baseline="middle" class="messageText" dy="1em" style="font-size: 16px; font-weight: 400;">ctx.wallet.address('agent')</text><line x1="2680" y1="1071" x2="2925" y2="1071" class="messageLine0" data-et="message" data-id="i15" data-from="Tools" data-to="Wallet" stroke-width="2" stroke="none" marker-end="url(#markdown-mermaid-dzxil4-114-arrowhead)" style="fill: none;"/><text x="2930" y="1086" text-anchor="middle" dominant-baseline="middle" alignment-baseline="middle" class="messageText" dy="1em" style="font-size: 16px; font-weight: 400;">resolve HAVEN_WALLET_PASSPHRASE → OWS sign → drop</text><path d="M 2930,1123 C 2990,1113 2990,1153 2930,1143" class="messageLine0" data-et="message" data-id="i16" data-from="Wallet" data-to="Wallet" stroke-width="2" stroke="none" marker-end="url(#markdown-mermaid-dzxil4-114-arrowhead)" style="fill: none;"/><text x="2806" y="1168" text-anchor="middle" dominant-baseline="middle" alignment-baseline="middle" class="messageText" dy="1em" style="font-size: 16px; font-weight: 400;">{address: '0xa85d...'}</text><line x1="2928" y1="1205" x2="2683" y2="1205" class="messageLine1" data-et="message" data-id="i17" data-from="Wallet" data-to="Tools" stroke-width="2" stroke="none" marker-end="url(#markdown-mermaid-dzxil4-114-arrowhead)" style="stroke-dasharray: 3, 3; fill: none;"/><text x="2538" y="1220" text-anchor="middle" dominant-baseline="middle" alignment-baseline="middle" class="messageText" dy="1em" style="font-size: 16px; font-weight: 400;">return wallet_info text</text><line x1="2678" y1="1257" x2="2397" y2="1257" class="messageLine1" data-et="message" data-id="i18" data-from="Tools" data-to="LLM" stroke-width="2" stroke="none" marker-end="url(#markdown-mermaid-dzxil4-114-arrowhead)" style="stroke-dasharray: 3, 3; fill: none;"/><text x="2535" y="1272" text-anchor="middle" dominant-baseline="middle" alignment-baseline="middle" class="messageText" dy="1em" style="font-size: 16px; font-weight: 400;">(more tool calls if needed)</text><line x1="2394" y1="1309" x2="2675" y2="1309" class="messageLine0" data-et="message" data-id="i19" data-from="LLM" data-to="Tools" stroke-width="2" stroke="none" marker-end="url(#markdown-mermaid-dzxil4-114-arrowhead)" style="fill: none;"/><text x="2072" y="1324" text-anchor="middle" dominant-baseline="middle" alignment-baseline="middle" class="messageText" dy="1em" style="font-size: 16px; font-weight: 400;">final assistant text</text><line x1="2392" y1="1361" x2="1752.5" y2="1361" class="messageLine1" data-et="message" data-id="i20" data-from="LLM" data-to="Agent" stroke-width="2" stroke="none" marker-end="url(#markdown-mermaid-dzxil4-114-arrowhead)" style="stroke-dasharray: 3, 3; fill: none;"/><text x="2471" y="1376" text-anchor="middle" dominant-baseline="middle" alignment-baseline="middle" class="messageText" dy="1em" style="font-size: 16px; font-weight: 400;">conversations.sync() → getConversationById() → sendText(reply)</text><line x1="1749.5" y1="1413" x2="3192" y2="1413" class="messageLine0" data-et="message" data-id="i21" data-from="Agent" data-to="Reply" stroke-width="2" stroke="none" marker-end="url(#markdown-mermaid-dzxil4-114-arrowhead)" style="fill: none;"/><text x="1836" y="1428" text-anchor="middle" dominant-baseline="middle" alignment-baseline="middle" class="messageText" dy="1em" style="font-size: 16px; font-weight: 400;">encrypted message to inbox</text><line x1="3195" y1="1465" x2="477.5" y2="1465" class="messageLine0" data-et="message" data-id="i22" data-from="Reply" data-to="XMTP" stroke-width="2" stroke="none" marker-end="url(#markdown-mermaid-dzxil4-114-arrowhead)" style="fill: none;"/><text x="300" y="1480" text-anchor="middle" dominant-baseline="middle" alignment-baseline="middle" class="messageText" dy="1em" style="font-size: 16px; font-weight: 400;">message delivered</text><line x1="472.5" y1="1517" x2="126.5" y2="1517" class="messageLine0" data-et="message" data-id="i23" data-from="XMTP" data-to="Phone" stroke-width="2" stroke="none" marker-end="url(#markdown-mermaid-dzxil4-114-arrowhead)" style="fill: none;"/><text x="1934" y="1578" text-anchor="middle" dominant-baseline="middle" alignment-baseline="middle" class="messageText" dy="1em" style="font-size: 16px; font-weight: 400;">throw TreasuryDeniedError — request fails</text><line x1="2115.5" y1="1615" x2="1752.5" y2="1615" class="messageLine0" data-et="message" data-id="i25" data-from="Policy" data-to="Agent" stroke-width="2" stroke="none" marker-end="url(#markdown-mermaid-dzxil4-114-arrowhead)" style="fill: none;"/></svg>